<svg fill="none" height="25" viewBox="0 0 127 25" width="127" xmlns="http://www.w3.org/2000/svg"><path d="m118.108 19.0478v-8.784h8.784v8.784z" fill="#1cba9b"/><g fill="#000"><path d="m8.44233 24.5849c-1.534 0-2.977-.299-4.329-.897-1.326-.598-2.535-1.625-3.627002-3.081l3.237002-3.12c.884.91 1.729 1.56 2.535 1.95s1.69.585 2.652.585c.572 0 1.027-.117 1.36497-.351.364-.26.546-.572.546-.936 0-.312-.104-.572-.312-.78s-.59797-.416-1.16997-.624-1.404-.455-2.496-.741c-2.002-.494-3.497-1.209-4.485-2.145-.962-.962-1.443002-2.236-1.443002-3.822 0-1.14399.299002-2.18399.897002-3.11999.598-.962 1.456-1.729 2.574-2.301s2.444-.858 3.978-.858c1.81997 0 3.36697.351 4.64097 1.053 1.274.676 2.327 1.508 3.159 2.496l-3.51 3.00299c-.572-.52-1.261-.96199-2.067-1.32599-.80597-.364-1.71597-.546-2.72997-.546-.546 0-1.014.104-1.404.312s-.585.51999-.585.93599c0 .39.234.715.702.975s1.404.559 2.808.897c2.36597.572 4.05597 1.339 5.06997 2.301 1.04.962 1.56 2.249 1.56 3.861 0 1.248-.325 2.353-.975 3.315-.65.936-1.547 1.664-2.691 2.184s-2.44397.78-3.89997.78z"/><path d="m27.598 24.3119c-2.106 0-3.77-.52-4.992-1.56-1.196-1.04-1.794-2.743-1.794-5.109v-12.47999l-.078-.234 1.17-4.602006h4.602v16.067996c0 .884.208 1.521.624 1.911.416.364.962.546 1.638.546.39 0 .754-.026 1.092-.078.364-.078.663-.156.897-.234v5.343c-.442.13-.923.234-1.443.312-.494.078-1.066.117-1.716.117zm-9.75-14.157v-5.22599h12.909v5.22599z"/><path d="m42.7154 24.3509c-1.898 0-3.575-.403-5.031-1.209-1.43-.806-2.548-1.95-3.354-3.432-.78-1.482-1.17-3.224-1.17-5.226 0-1.976.39-3.718 1.17-5.22599.806-1.508 1.924-2.678 3.354-3.51 1.456-.85801 3.133-1.28701 5.031-1.28701 1.95 0 3.64.44201 5.07 1.32601s2.535 2.08 3.315 3.588c.78 1.48199 1.17 3.15899 1.17 5.03099 0 .338-.013.663-.039.975s-.052.559-.078.741h-14.547v-4.056h10.179l-.663 1.677c0-1.43-.364-2.6-1.092-3.51-.702-.90999-1.794-1.36499-3.276-1.36499-1.326 0-2.392.403-3.198 1.20899-.78.806-1.17 1.872-1.17 3.198v2.145c0 1.43.403 2.548 1.209 3.354.832.78 1.976 1.17 3.432 1.17 1.222 0 2.184-.247 2.886-.741.728-.494 1.339-1.105 1.833-1.833l3.861 2.145c-.832 1.534-2.002 2.73-3.51 3.588-1.508.832-3.302 1.248-5.382 1.248z"/><path d="m72.6074 4.92891-6.864 19.07099h-5.499l-7.215-19.07099h5.85l4.875 14.46899h-1.56l4.68-14.46899z"/><path d="m82.6295 24.3509c-1.898 0-3.575-.403-5.031-1.209-1.43-.806-2.548-1.95-3.354-3.432-.78-1.482-1.17-3.224-1.17-5.226 0-1.976.39-3.718 1.17-5.22599.806-1.508 1.924-2.678 3.354-3.51 1.456-.85801 3.133-1.28701 5.031-1.28701 1.95 0 3.64.44201 5.07 1.32601s2.535 2.08 3.315 3.588c.78 1.48199 1.17 3.15899 1.17 5.03099 0 .338-.013.663-.039.975s-.052.559-.078.741h-14.547v-4.056h10.179l-.663 1.677c0-1.43-.364-2.6-1.092-3.51-.702-.90999-1.794-1.36499-3.276-1.36499-1.326 0-2.392.403-3.198 1.20899-.78.806-1.17 1.872-1.17 3.198v2.145c0 1.43.403 2.548 1.209 3.354.832.78 1.976 1.17 3.432 1.17 1.222 0 2.184-.247 2.886-.741.728-.494 1.339-1.105 1.833-1.833l3.861 2.145c-.832 1.534-2.002 2.73-3.51 3.588-1.508.832-3.302 1.248-5.382 1.248z"/><path d="m106.777 4.4609c1.274 0 2.314.221 3.12.66301.806.416 1.417 1.001 1.833 1.755.442.754.728 1.612.858 2.574.156.93599.234 1.91099.234 2.92499v11.622h-5.694v-11.31c0-1.092-.195-1.807-.585-2.145-.39-.364-.91-.54599-1.56-.54599-.546 0-1.118.11699-1.716.35099-.572.208-1.131.507-1.677.897s-1.027.832-1.443 1.326l-1.0135-2.88599h1.5985v14.31299h-5.6935v-19.07099h4.212l1.1695 3.783-1.9495-.156c.676-.754 1.443-1.443 2.3005-2.06701.858-.62399 1.794-1.11799 2.808-1.48199 1.014-.36401 2.08-.54601 3.198-.54601z"/></g></svg>