<svg width="26" height="21" viewBox="0 0 26 21" fill="none" xmlns="http://www.w3.org/2000/svg">
<path d="M8.0312 20.585C6.4972 20.585 5.0542 20.286 3.7022 19.688C2.3762 19.09 1.1672 18.063 0.0751953 16.607L3.3122 13.487C4.1962 14.397 5.0412 15.047 5.8472 15.437C6.6532 15.827 7.5372 16.022 8.4992 16.022C9.0712 16.022 9.5262 15.905 9.8642 15.671C10.2282 15.411 10.4102 15.099 10.4102 14.735C10.4102 14.423 10.3062 14.163 10.0982 13.955C9.8902 13.747 9.5002 13.539 8.9282 13.331C8.3562 13.123 7.5242 12.876 6.4322 12.59C4.4302 12.096 2.9352 11.381 1.9472 10.445C0.985195 9.48299 0.504195 8.20899 0.504195 6.62299C0.504195 5.47899 0.803195 4.43899 1.4012 3.50299C1.9992 2.54099 2.8572 1.77399 3.9752 1.20199C5.0932 0.629994 6.4192 0.343994 7.9532 0.343994C9.7732 0.343994 11.3202 0.694994 12.5942 1.39699C13.8682 2.07299 14.9212 2.90499 15.7532 3.89299L12.2432 6.89599C11.6712 6.37599 10.9822 5.93399 10.1762 5.56999C9.3702 5.20599 8.4602 5.02399 7.4462 5.02399C6.9002 5.02399 6.4322 5.12799 6.0422 5.33599C5.6522 5.54399 5.4572 5.85599 5.4572 6.27199C5.4572 6.66199 5.6912 6.98699 6.1592 7.24699C6.6272 7.50699 7.5632 7.80599 8.9672 8.14399C11.3332 8.71599 13.0232 9.48299 14.0372 10.445C15.0772 11.407 15.5972 12.694 15.5972 14.306C15.5972 15.554 15.2722 16.659 14.6222 17.621C13.9722 18.557 13.0752 19.285 11.9312 19.805C10.7872 20.325 9.4872 20.585 8.0312 20.585Z" fill="black"/>
<path d="M21.4685 20.39C20.7665 20.39 20.1165 20.208 19.5185 19.844C18.9205 19.48 18.4395 18.999 18.0755 18.401C17.7115 17.803 17.5295 17.153 17.5295 16.451C17.5295 15.723 17.7115 15.06 18.0755 14.462C18.4395 13.864 18.9205 13.396 19.5185 13.058C20.1165 12.694 20.7665 12.512 21.4685 12.512C22.2225 12.512 22.8985 12.694 23.4965 13.058C24.0945 13.396 24.5625 13.864 24.9005 14.462C25.2645 15.06 25.4465 15.723 25.4465 16.451C25.4465 17.153 25.2645 17.803 24.9005 18.401C24.5625 18.999 24.0945 19.48 23.4965 19.844C22.8985 20.208 22.2225 20.39 21.4685 20.39Z" fill="#1CBA9B"/>
</svg>
