<svg width="27" height="21" viewBox="0 0 27 21" fill="none" xmlns="http://www.w3.org/2000/svg">
<path d="M8.21088 20.585C6.67688 20.585 5.23388 20.286 3.88188 19.688C2.55588 19.09 1.34688 18.063 0.254883 16.607L3.49188 13.487C4.37588 14.397 5.22088 15.047 6.02688 15.437C6.83288 15.827 7.71688 16.022 8.67888 16.022C9.25088 16.022 9.70588 15.905 10.0439 15.671C10.4079 15.411 10.5899 15.099 10.5899 14.735C10.5899 14.423 10.4859 14.163 10.2779 13.955C10.0699 13.747 9.67988 13.539 9.10788 13.331C8.53588 13.123 7.70388 12.876 6.61188 12.59C4.60988 12.096 3.11488 11.381 2.12688 10.445C1.16488 9.48299 0.683883 8.20899 0.683883 6.62299C0.683883 5.47899 0.982883 4.43899 1.58088 3.50299C2.17888 2.54099 3.03688 1.77399 4.15488 1.20199C5.27288 0.629994 6.59888 0.343994 8.13288 0.343994C9.95288 0.343994 11.4999 0.694994 12.7739 1.39699C14.0479 2.07299 15.1009 2.90499 15.9329 3.89299L12.4229 6.89599C11.8509 6.37599 11.1619 5.93399 10.3559 5.56999C9.54988 5.20599 8.63988 5.02399 7.62588 5.02399C7.07988 5.02399 6.61188 5.12799 6.22188 5.33599C5.83188 5.54399 5.63688 5.85599 5.63688 6.27199C5.63688 6.66199 5.87088 6.98699 6.33888 7.24699C6.80688 7.50699 7.74288 7.80599 9.14688 8.14399C11.5129 8.71599 13.2029 9.48299 14.2169 10.445C15.2569 11.407 15.7769 12.694 15.7769 14.306C15.7769 15.554 15.4519 16.659 14.8019 17.621C14.1519 18.557 13.2549 19.285 12.1109 19.805C10.9669 20.325 9.66688 20.585 8.21088 20.585Z" fill="black"/>
<path d="M18.1078 16.048V7.26399H26.8918V16.048H18.1078Z" fill="#1CBA9B"/>
</svg>
